<?xml version="1.0" standalone="no"?><!DOCTYPE svg PUBLIC "-//W3C//DTD SVG 1.1//EN" "http://www.w3.org/Graphics/SVG/1.1/DTD/svg11.dtd"><svg t="1663738656926" class="icon" viewBox="0 0 1024 1024" version="1.1" xmlns="http://www.w3.org/2000/svg" p-id="1627" xmlns:xlink="http://www.w3.org/1999/xlink" width="200" height="200"><path d="M813 870.8H213c-81.4 0-147.6-66.2-147.6-147.6V424.5C65.4 343.2 131.6 277 213 277h29.2c7.9 0 15.3-4.3 19.2-11.2l41.1-73.1c13.8-24.5 39.8-39.8 68-39.8h285.2c28.2 0 54.2 15.2 68 39.8l41.1 73.1c3.9 6.9 11.2 11.2 19.2 11.2h29c81.4 0 147.6 66.2 147.6 147.6v298.7c0 81.3-66.2 147.5-147.6 147.5zM213 333c-24.3 0-47.3 9.6-64.6 26.9-17.4 17.4-26.9 40.3-26.9 64.6v298.7c0 24.3 9.6 47.3 26.9 64.6 17.4 17.4 40.3 26.9 64.6 26.9h600c24.3 0 47.3-9.6 64.6-26.9 17.4-17.4 26.9-40.3 26.9-64.6V424.5c0-24.3-9.6-47.3-26.9-64.6-17.3-17.4-40.3-26.9-64.6-26.9h-29.2c-28.2 0-54.2-15.2-68-39.8l-41.1-73.1c-3.9-6.9-11.2-11.2-19.2-11.2H370.4c-7.9 0-15.3 4.3-19.2 11.2l-41.1 73.1c-13.8 24.5-39.8 39.8-68 39.8H213z" fill="" p-id="1628"></path><path d="M513 756.4c-111.6 0-202.4-90.8-202.4-202.4 0-111.6 90.8-202.4 202.4-202.4 111.6 0 202.4 90.8 202.4 202.4 0 111.6-90.8 202.4-202.4 202.4z m0-348.9c-80.7 0-146.4 65.7-146.4 146.4S432.3 700.4 513 700.4 659.4 634.7 659.4 554 593.7 407.5 513 407.5z" fill="" p-id="1629"></path></svg>